# xmcd
#
# Track frame offsets:
#	150
#	14742
#	27725
#	40902
#	54022
#	65992
#	78207
#	90890
#	102180
#	115050
#	129662
#	143160
#	158762
#	171010
#	184965
#	196467
#	208217
#	219772
#	233300
#	248040
#	259272
#	270785
#	282900
#
# Disc length: 3934
#
# Revision: 1
# Processed by: cddbd v1.5.1PL0 Copyright (c) Steve Scherf et al.
# Submitted via: CDex 1.51
# Normalized: r0:TRMNUM
#
DISCID=3c0f5c17
DTITLE=Bo Diddley - Bo's Blues
DYEAR=1900
DGENRE=Blues
TTITLE0=Down Home Special
TTITLE1=You Don't Love Me
TTITLE2=Blues Blues
TTITLE3=500% More Man
TTITLE4=Live My Life
TTITLE5=She's Fine, She's Mine
TTITLE6=Heart-O-Matic Love
TTITLE7=Bring It to Jerome
TTITLE8=Pretty Thing
TTITLE9=You Can't Judge a Book by Its Cover
TTITLE10=The Clock Strikes Twelve
TTITLE11=Cops and Robbers
TTITLE12=Run Diddley Daddy
TTITLE13=Before You Accuse Me
TTITLE14=Diddy Wah Diddy
TTITLE15=Bo's Blues
TTITLE16=Little Girl
TTITLE17=I'm a Man
TTITLE18=I'm Bad
TTITLE19=Who Do You Love 
TTITLE20=I'm Looking for a Woman
TTITLE21=Two Flies
TTITLE22=Bo Diddley
EXTD=
EXTT0=
EXTT1=
EXTT2=
EXTT3=
EXTT4=
EXTT5=
EXTT6=
EXTT7=
EXTT8=
EXTT9=
EXTT10=
EXTT11=
EXTT12=
EXTT13=
EXTT14=
EXTT15=
EXTT16=
EXTT17=
EXTT18=
EXTT19=
EXTT20=
EXTT21=
EXTT22=
PLAYORDER=
